<svg width="45" height="45" viewBox="0 0 45 45" fill="none" xmlns="http://www.w3.org/2000/svg">
<path d="M22.5001 0C16.3894 0 15.6231 0.0259234 13.2233 0.135378C10.8284 0.244631 9.19281 0.625041 7.7616 1.18115C6.28203 1.75616 5.02726 2.52555 3.77644 3.77637C2.52555 5.02719 1.75616 6.28209 1.18122 7.76167C0.624974 9.19281 0.244698 10.8284 0.135311 13.2233C0.0258564 15.6231 0 16.3894 0 22.5001C0 28.6106 0.0258564 29.3769 0.135311 31.7767C0.244698 34.1716 0.624974 35.8072 1.18122 37.2383C1.75622 38.7179 2.52562 39.9727 3.77644 41.2236C5.02732 42.4744 6.28203 43.2438 7.7616 43.8188C9.19281 44.375 10.8284 44.7553 13.2233 44.8646C15.6231 44.9741 16.3894 45 22.5001 45C28.6106 45 29.3769 44.9741 31.7767 44.8646C34.1716 44.7554 35.8072 44.375 37.2383 43.8188C38.7179 43.2438 39.9727 42.4744 41.2236 41.2236C42.4744 39.9727 43.2438 38.7179 43.8188 37.2383C44.375 35.8072 44.7554 34.1716 44.8646 31.7767C44.9741 29.3769 45 28.6106 45 22.5001C45 16.3894 44.9741 15.6231 44.8646 13.2233C44.7554 10.8284 44.375 9.19281 43.8188 7.76167C43.2438 6.28209 42.4744 5.02719 41.2236 3.77637C39.9727 2.52555 38.7179 1.75616 37.2383 1.18115C35.8072 0.625041 34.1716 0.244631 31.7767 0.135378C29.3769 0.0259234 28.6106 0 22.5001 0ZM22.5001 4.05402C28.5077 4.05402 29.2194 4.077 31.5919 4.18525C33.7857 4.28526 34.977 4.6518 35.7698 4.95993C36.8201 5.36814 37.5696 5.85566 38.3569 6.64301C39.1443 7.43036 39.6319 8.17992 40.0401 9.23012C40.3482 10.023 40.7147 11.2144 40.8147 13.4081C40.923 15.7806 40.946 16.4923 40.946 22.5C40.946 28.5077 40.923 29.2194 40.8147 31.5919C40.7147 33.7857 40.3482 34.977 40.0401 35.7698C39.6319 36.8201 39.1443 37.5696 38.3569 38.3569C37.5696 39.1443 36.8201 39.6319 35.7699 40.0401C34.977 40.3482 33.7856 40.7147 31.5919 40.8147C29.2198 40.923 28.5082 40.946 22.5 40.946C16.4918 40.946 15.7804 40.923 13.4081 40.8147C11.2143 40.7147 10.023 40.3482 9.23019 40.0401C8.17986 39.6319 7.43036 39.1443 6.64308 38.3569C5.85573 37.5696 5.36814 36.8201 4.95993 35.7699C4.6518 34.977 4.28532 33.7856 4.18525 31.5919C4.077 29.2194 4.05402 28.5077 4.05402 22.5C4.05402 16.4923 4.077 15.7806 4.18525 13.4081C4.28532 11.2143 4.6518 10.023 4.95993 9.23019C5.36814 8.17986 5.85573 7.43036 6.64301 6.64308C7.43036 5.85566 8.17992 5.36814 9.23012 4.95993C10.023 4.6518 11.2144 4.28526 13.4081 4.18525C15.7806 4.077 16.4923 4.05402 22.5001 4.05402Z" fill="black"/>
<path d="M22.5002 30.0007C18.3579 30.0007 15.0001 26.6428 15.0001 22.5007C15.0001 18.3585 18.3579 15.0006 22.5002 15.0006C26.6423 15.0006 30.0001 18.3585 30.0001 22.5007C30.0001 26.6428 26.6423 30.0007 22.5002 30.0007ZM22.5002 10.9466C16.1189 10.9466 10.946 16.1195 10.946 22.5007C10.946 28.8818 16.1189 34.0547 22.5002 34.0547C28.8813 34.0547 34.0541 28.8818 34.0541 22.5007C34.0541 16.1195 28.8813 10.9466 22.5002 10.9466ZM37.2107 10.4901C37.2107 11.9813 36.0018 13.1901 34.5106 13.1901C33.0195 13.1901 31.8107 11.9813 31.8107 10.4901C31.8107 8.99892 33.0195 7.79004 34.5106 7.79004C36.0018 7.79004 37.2107 8.99892 37.2107 10.4901Z" fill="black"/>
</svg>
